# xmcd CD database file
#
# Track frame offsets:
#	150
#	25295
#	68482
#	92789
#	109576
#	131873
#	160889
#	187941
#
# Disc length: 3092 seconds
#
# Revision: 0
# Processed by: cddbd v1.5.1PL0 Copyright (c) Steve Scherf et al.
# Submitted via: CDex 1.51
#
DISCID=620c1208
DTITLE=Victor Biglione - Brazilian Quartet Live at 29 Montreux Jazz Festival
DYEAR=1997
DGENRE=Jazz
TTITLE0=Cai dentro
TTITLE1=Suite Brazil Nº1
TTITLE2=Via Canal
TTITLE3=What are you doing the rest of your life
TTITLE4=Baiao Rio/Montreux
TTITLE5=Trenzinho Caipira
TTITLE6=Canto de Ossanha
TTITLE7=Quebra pedra
EXTD=YEAR: 1997
EXTT0=
EXTT1=
EXTT2=
EXTT3=
EXTT4=
EXTT5=
EXTT6=
EXTT7=
PLAYORDER=
